<?xml version="1.0" encoding="utf-8"?>
<!-- Generator: Adobe Illustrator 26.2.1, SVG Export Plug-In . SVG Version: 6.00 Build 0)  -->
<svg version="1.1" id="Capa_1" xmlns="http://www.w3.org/2000/svg" xmlns:xlink="http://www.w3.org/1999/xlink" x="0px" y="0px"
	 viewBox="0 0 385 385" style="enable-background:new 0 0 385 385;" xml:space="preserve">
<style type="text/css">
	.st0{fill:#FD5B09;}
</style>
<g>
	<g id="Sign_Out">
		<path class="st0" d="M180.5,360.9H24.1V24.1h156.4c6.6,0,12-5.4,12-12s-5.4-12-12-12H12C5.4,0,0,5.4,0,12v360.9
			c0,6.6,5.4,12,12,12h168.4c6.6,0,12-5.4,12-12C192.5,366.3,187.1,360.9,180.5,360.9z"/>
		<path class="st0" d="M381.5,184.1l-83-84.2c-4.7-4.8-12.3-4.7-17,0c-4.7,4.7-4.7,12.4,0,17.2l62.6,63.5H96.3
			c-6.6,0-12,5.4-12,12.2s5.4,12.2,12,12.2H344l-62.6,63.5c-4.7,4.8-4.7,12.4,0,17.2c4.7,4.8,12.3,4.8,17,0l83-84.2
			C386.1,196.6,386.2,188.8,381.5,184.1z"/>
	</g>
</g>
</svg>
